<svg xmlns="http://www.w3.org/2000/svg" width="128" height="128" viewBox="0 0 128 128"><rect width="128" height="128" rx="24" ry="22.154" style="fill:#0a0a0a;fill-opacity:1"/><path d="M29.863 21.494v5.097l30.69 37.99-30.69 33.215v6.44H90.18q3.977-13.026 7.957-26.052H87.876c-1.2 3.42-2.324 6.866-3.556 10.274-3.33.151-6.666.02-9.998.065H53.593L75.475 64.83v-6.787L53.596 30.97c7.87.015 15.742-.042 23.611.04.399.077.979-.05 1.263.253 1.186 3.33 2.401 6.65 3.607 9.973h10.215q-3.272-10.738-6.547-21.474H29.863z" style="font-size:85.3333px;font-family:&quot;DejaVu Math TeX Gyre&quot;;-inkscape-font-specification:&quot;DejaVu Math TeX Gyre, Normal&quot;;fill:#c83c0a;stroke-width:.866086"/></svg>